<?xml version="1.0" encoding="UTF-8"?>
<svg width="18px" height="19px" viewBox="0 0 18 19" version="1.1" xmlns="http://www.w3.org/2000/svg" xmlns:xlink="http://www.w3.org/1999/xlink">
    <title></title>
    <g id="Desktop" stroke="none" stroke-width="1" fill="none" fill-rule="evenodd">
        <g id="Desktop-HD-Copy-10" transform="translate(-24.000000, -69.000000)" fill="#AEAEAE" fill-rule="nonzero">
            <path d="M32.75,87.25 C33.4270833,87.25 34.0130208,87.09375 34.5078125,86.78125 C35.0026042,86.46875 35.25,86.0911458 35.25,85.6484375 L35.25,85.6484375 L35.25,82.25 C35.25,82.0416667 35.328125,81.7617188 35.484375,81.4101562 C35.640625,81.0585938 35.875,80.6419271 36.1875,80.1601562 C36.5,79.6783854 36.8125,79.2226562 37.125,78.7929688 C37.4375,78.3632812 37.8216146,77.8619792 38.2773437,77.2890625 C38.7330729,76.7161458 39.0976562,76.2604167 39.3710937,75.921875 C39.6445312,75.5833333 39.9895833,75.1536458 40.40625,74.6328125 C40.8229167,74.1119792 41.0703125,73.8125 41.1484375,73.734375 C41.3828125,73.4739583 41.5,73.1875 41.5,72.875 C41.5,72.015625 40.6471354,71.2799479 38.9414062,70.6679688 C37.2356771,70.0559896 35.171875,69.75 32.75,69.75 C30.328125,69.75 28.2578125,70.0625 26.5390625,70.6875 C24.8463542,71.2864583 24,72.015625 24,72.875 C24,73.1614583 24.1432292,73.4739583 24.4296875,73.8125 C28.3098958,78.5520833 30.25,81.3645833 30.25,82.25 L30.25,82.25 L30.25,85.6484375 C30.25,86.0911458 30.4973958,86.46875 30.9921875,86.78125 C31.4869792,87.09375 32.0729167,87.25 32.75,87.25 Z M32.75,74.75 C30.9270833,74.75 29.3255208,74.5677083 27.9453125,74.203125 C26.5651042,73.8125 25.875,73.3697917 25.875,72.875 C25.875,72.3802083 26.5651042,71.9440104 27.9453125,71.5664062 C29.3255208,71.1888021 30.9270833,71 32.75,71 C34.5729167,71 36.1744792,71.1888021 37.5546875,71.5664062 C38.9348958,71.9440104 39.625,72.3802083 39.625,72.875 C39.625,73.3697917 38.9348958,73.8059896 37.5546875,74.1835938 C36.1744792,74.5611979 34.5729167,74.75 32.75,74.75 Z" id=""></path>
        </g>
    </g>
</svg>